<?xml version="1.0" encoding="UTF-8"?>
<svg width="36px" height="40px" viewBox="0 0 36 40" version="1.1" xmlns="http://www.w3.org/2000/svg" xmlns:xlink="http://www.w3.org/1999/xlink">
    <title>形状结合</title>
    <defs>
        <linearGradient x1="50%" y1="100%" x2="50%" y2="0%" id="linearGradient-1">
            <stop stop-color="#E8F2FF" offset="0%"></stop>
            <stop stop-color="#F2F7FF" offset="99.9762458%"></stop>
        </linearGradient>
    </defs>
    <g id="页面-1" stroke="none" stroke-width="1" fill="none" fill-rule="evenodd">
        <g id="极星核心功能" transform="translate(-477.000000, -220.000000)" fill="url(#linearGradient-1)" fill-rule="nonzero">
            <g id="极星" transform="translate(70.000000, 65.095969)">
                <g id="极星_icon2-白" transform="translate(390.000000, 140.000000)">
                    <path d="M39.375,16.9166667 L48.125,22.1666667 C50.75,23.9166667 52.5,26.8333333 52.5,29.75 L52.5,40.25 C52.5,43.4583333 50.75,46.375 48.125,47.8333333 L39.375,53.0833333 C36.75,54.5416667 33.25,54.5416667 30.625,53.0833333 L21.875,47.8333333 C19.25,46.0833333 17.5,43.1666667 17.5,40.25 L17.5,29.75 C17.5,26.5416667 19.25,23.625 21.875,22.1666667 L30.625,16.9166667 C33.25,15.4583333 36.75,15.4583333 39.375,16.9166667 Z M46.1416667,28.7583333 C45.85,27.8833333 44.6833333,27.5916667 43.8083333,28.175 L43.8083333,28.175 L35.0583333,33.425 L26.3083333,28.175 C25.4333333,27.8833333 24.5583333,27.8833333 23.975,29.05 C23.3916667,29.925 23.6833333,30.8 24.5583333,31.3833333 L24.5583333,31.3833333 L33.3083333,36.6333333 L33.3083333,45.9666667 C33.3083333,46.8416667 34.1833333,47.7166667 35.0583333,47.7166667 C35.9333333,47.7166667 36.8083333,46.8416667 36.8083333,46.2583333 L36.8083333,46.2583333 L36.8083333,36.6333333 L45.5583333,31.3833333 C46.1416667,30.8 46.4333333,29.6333333 46.1416667,28.7583333 Z" id="形状结合"></path>
                </g>
            </g>
        </g>
    </g>
</svg>