<?xml version="1.0" encoding="UTF-8"?>
<svg width="76px" height="76px" viewBox="0 0 76 76" version="1.1" xmlns="http://www.w3.org/2000/svg" xmlns:xlink="http://www.w3.org/1999/xlink">
    <title>编组 3</title>
    <defs>
        <linearGradient x1="34.056073%" y1="14.9537026%" x2="98.2773664%" y2="82.5369372%" id="linearGradient-1">
            <stop stop-color="#2ECEFF" offset="0%"></stop>
            <stop stop-color="#55D7FF" offset="100%"></stop>
        </linearGradient>
        <linearGradient x1="34.056073%" y1="15.9490583%" x2="98.2773664%" y2="81.6128502%" id="linearGradient-2">
            <stop stop-color="#2ECEFF" offset="0%"></stop>
            <stop stop-color="#55D7FF" offset="100%"></stop>
        </linearGradient>
    </defs>
    <g id="页面-1" stroke="none" stroke-width="1" fill="none" fill-rule="evenodd">
        <g id="极星平台" transform="translate(-270.000000, -820.000000)">
            <g id="编组-14" transform="translate(0.000000, 556.000000)">
                <g id="编组-27" transform="translate(240.000000, 217.000000)">
                    <g id="编组-3" transform="translate(30.000000, 47.000000)">
                        <g id="编组-13" fill="#FFFFFF" fill-opacity="0.6">
                            <circle id="椭圆形" cx="38" cy="38" r="38"></circle>
                        </g>
                        <g id="companyreg-工商财税" transform="translate(21.000000, 19.000000)" fill-rule="nonzero">
                            <g id="advisor-智能顾问">
                                <path d="M23.8,12.675 C25.0526316,12.7636363 26.0368421,13.8272727 25.9473684,15.1568182 C25.8578947,16.3977273 24.7842105,17.2840909 23.4421053,17.2840909 C22.1,17.1954546 21.1157895,16.2204546 21.2052632,14.8909091 C21.2052632,13.5613636 22.3684211,12.5863636 23.8,12.675 Z" id="路径" fill="url(#linearGradient-1)"></path>
                                <polygon id="路径" fill="#071D3C" points="17.2684211 0 21.2947368 2.48181817 19.9526316 4.78636364 17.1789474 3.1022727 2.7736842 11.0795454 2.7736842 21.2727273 0.0894736703 21.2727273 0.178947341 9.48409089"></polygon>
                                <path d="M16.3736842,11.5227273 C17.0894737,11.5227273 17.3578948,11.9659091 17.7157895,12.4090909 L17.8052632,12.4977273 L24.5157895,25.2613637 C24.7842105,25.7931818 24.9631579,26.325 24.5157895,26.8568182 C23.8894737,27.6545455 22.8157895,27.5659091 22.2789474,26.5909091 L21.6526316,25.35 L20.3105263,22.8681818 C20.2210526,22.6909091 20.0421053,22.425 19.8631579,22.1590909 L18.4315789,24.9068182 C18.1631579,25.5272727 17.8052632,26.0590909 17.5368421,26.6795455 C17,27.6545455 15.8368421,27.7431818 15.3,26.8568182 C14.9421053,26.325 15.1210526,25.7931818 15.3894737,25.2613637 L17.2684211,21.8045455 C17.5368421,21.1840909 17.8947368,20.6522728 18.1631579,20.0318182 C18.4315789,19.5886363 18.4315789,19.2340909 18.1631579,18.7909091 C17.5368421,17.7272727 17.0894737,16.6636363 16.4631579,15.6 C16.1947368,15.7772727 16.1052632,16.0431818 16.0157895,16.3090909 L13.3315789,21.3613636 L10.7368421,26.4136364 C10.4684211,26.8568182 10.2,27.3 9.57368419,27.4772727 C8.67894736,27.6545455 7.8736842,26.8568182 8.14210526,25.9704545 C8.23157893,25.7045454 8.32105264,25.5272727 8.41052631,25.35 C10.6473684,21.0954545 12.7947368,16.9295454 15.031579,12.675 C15.3,11.9659091 15.6578947,11.5227273 16.3736842,11.5227273 L16.3736842,11.5227273 Z" id="路径" fill="url(#linearGradient-2)"></path>
                                <polygon id="路径" fill="#071D3C" points="23.8894737 3.81136363 34 9.83863637 33.8210527 29.3386364 29.7947369 31.7318182 28.4526316 29.3386364 31.2263158 27.7431818 31.4052632 11.4340909 22.4578947 6.0272727"></polygon>
                                <polygon id="路径" fill="#071D3C" points="0.0894736703 24.1977273 2.7736842 24.2863636 2.68421053 27.5659091 17 35.8977273 25.9473684 30.7568182 27.2894737 33.15 27.2 33.2386364 16.9105263 39 16.8210526 39 0 29.0727273 0.0894736703 24.1977273"></polygon>
                            </g>
                        </g>
                    </g>
                </g>
            </g>
        </g>
    </g>
</svg>