<?xml version="1.0" standalone="no"?><!DOCTYPE svg PUBLIC "-//W3C//DTD SVG 1.1//EN" "http://www.w3.org/Graphics/SVG/1.1/DTD/svg11.dtd"><svg t="1698114612610" class="icon" viewBox="0 0 1024 1024" version="1.1" xmlns="http://www.w3.org/2000/svg" p-id="7468" xmlns:xlink="http://www.w3.org/1999/xlink" width="200" height="200"><path d="M849.408 180.224c-174.592 0-292.352-101.376-297.984-101.376-11.264-11.264-28.16-16.896-45.056-16.896-11.264 0-28.16 11.264-33.792 22.528-56.32 67.584-207.872 90.112-297.984 90.112-16.896 0-28.16 5.632-33.792 16.896-16.896 11.264-22.528 28.16-22.528 39.424v303.616c0 146.432 213.504 427.52 393.728 427.52 191.488 0 388.096-286.72 388.096-416.256V230.912c5.632-28.16-22.528-50.688-50.688-50.688z m0 365.568c0 107.008-180.224 359.936-337.408 359.936-146.432 0-337.408-247.296-337.408-371.2V230.912c90.112 0 269.824-22.528 337.408-112.64 5.632 5.632 140.8 118.272 331.776 118.272v309.248h5.632z" fill="#333333" p-id="7469"></path><path d="M512 404.992c-84.48 0-157.696 73.216-157.696 163.328 0 16.896 11.264 28.16 28.16 28.16s28.16-11.264 28.16-28.16c0-56.32 45.056-107.008 101.376-107.008s107.008 50.688 107.008 107.008c0 16.896 11.264 28.16 28.16 28.16s28.16-11.264 28.16-28.16c0-90.112-73.216-163.328-163.328-163.328z m135.168 230.912H376.832c-16.896 0-28.16 11.264-28.16 28.16s11.264 28.16 28.16 28.16h269.824c16.896 0 28.16-11.264 28.16-28.16s-10.752-28.16-27.648-28.16z m-56.32 100.864H433.152c-16.896 0-28.16 11.264-28.16 28.16s11.264 28.16 28.16 28.16h157.696c16.896 0 28.16-11.264 28.16-28.16s-11.264-28.16-28.16-28.16zM483.84 259.072v73.216c0 16.896 11.264 28.16 28.16 28.16s28.16-11.264 28.16-28.16V259.072c0-11.264-11.264-28.16-28.16-28.16s-28.16 16.896-28.16 28.16z m-112.64 162.816c5.632 0 16.896 0 22.528-5.632 11.264-11.264 11.264-28.16 0-39.424l-50.688-56.32c-11.264-11.264-28.16-11.264-39.424 0s-11.264 28.16 0 39.424l50.688 50.688c5.632 5.632 11.264 11.264 16.896 11.264z m281.6 0c5.632 0 16.896 0 22.528-5.632l50.688-50.688c11.264-11.264 11.264-28.16 0-39.424s-28.16-11.264-39.424 0l-50.688 50.688c-11.264 11.264-11.264 28.16 0 39.424 0 0 5.632 5.632 16.896 5.632z" fill="#333333" p-id="7470"></path></svg>