<?xml version="1.0" encoding="UTF-8"?>
<svg width="76px" height="76px" viewBox="0 0 76 76" version="1.1" xmlns="http://www.w3.org/2000/svg" xmlns:xlink="http://www.w3.org/1999/xlink">
    <title>编组 36</title>
    <defs>
        <linearGradient x1="34.056073%" y1="12.8150274%" x2="98.2773664%" y2="84.5224804%" id="linearGradient-1">
            <stop stop-color="#2ECEFF" offset="0%"></stop>
            <stop stop-color="#55D7FF" offset="100%"></stop>
        </linearGradient>
    </defs>
    <g id="页面-1" stroke="none" stroke-width="1" fill="none" fill-rule="evenodd">
        <g id="极星平台" transform="translate(-1250.000000, -820.000000)">
            <g id="编组-14" transform="translate(0.000000, 556.000000)">
                <g id="编组-21备份-2" transform="translate(1220.000000, 217.000000)">
                    <g id="编组-36" transform="translate(30.000000, 47.000000)">
                        <circle id="椭圆形" fill-opacity="0.6" fill="#FFFFFF" cx="38" cy="38" r="38"></circle>
                        <path d="M38.0125833,18 L21,28.0063654 L21,36.5614258 L23.4411547,36.5614258 L23.4411547,29.4322088 L37.9874167,20.8771483 L44.0777202,24.4672183 L45.3108808,22.3284532 L38.0125833,18 Z M21,39.4385742 L21,47.9936346 L37.9874167,58 L45.3108808,53.6970083 L44.0777202,51.5582432 L37.9874167,55.1483132 L23.4663212,46.5677912 L23.4663212,39.4385742 L21,39.4385742 Z M46.5440415,25.8930617 L52.5336788,29.4322088 L52.5336788,46.5677912 L46.5440415,50.1069383 L47.7772021,52.2457034 L55,47.9936346 L55,28.0063654 L47.7772021,23.7542966 L46.5440415,25.8930617 Z" id="形状" fill="#071D3C" fill-rule="nonzero"></path>
                        <circle id="椭圆形" fill="url(#linearGradient-1)" cx="38" cy="40.5" r="7"></circle>
                        <path d="M42.0392302,40.3551878 C42.0392302,39.744112 41.9637306,39.1330363 41.8378979,38.5219605 C41.4855662,36.9688097 40.7054034,35.5429663 39.5980755,34.4226607 C41.057735,33.862508 42.6935603,33.862508 44.1532198,34.4481222 C43.9267209,35.4411203 43.4988897,36.3831954 42.8445596,37.1470401 L42.76906,37.2234246 L42.9955588,38.2418842 C43.0710585,38.5728835 43.1213916,38.9293444 43.1717246,39.2603437 L43.2220577,39.6677276 L43.5240563,39.3876512 C44.6817172,38.3691916 45.5122132,37.0451941 45.965211,35.5684278 C47.3493708,36.7651178 48.1295337,38.5219605 48.1295337,40.3551878 C48.1295337,43.8688733 45.3108808,46.7205602 41.8378979,46.7205602 C41.0829016,46.7205602 40.3279053,46.5677912 39.5980755,46.3131763 C41.1584012,44.734564 42.0392302,42.5957989 42.0392302,40.3551878 M37.7609178,35.4920433 C38.8682457,36.4341184 39.5980755,37.7326544 39.8749075,39.1584978 C38.4907476,39.5913431 37.0059215,39.5404201 35.6720947,39.0057288 C35.9740933,37.6308084 36.703923,36.4086569 37.7609178,35.4920433 M38.0125833,26.7078294 C41.1835677,26.7078294 43.8512213,29.1266709 44.253886,32.2838956 C42.0895633,31.6218969 39.7490748,31.8765118 37.7609178,32.9968173 C36.5277572,32.2838956 35.1184308,31.9274348 33.6839378,31.9274348 C33.5581051,31.9274348 33.4574389,31.9274348 33.3567728,31.9528962 C33.3064397,31.9528962 33.23094,31.9528962 33.180607,31.9783577 L33.0044412,31.9783577 L32.9289415,32.563972 C32.903775,32.7422024 32.903775,32.8949714 32.903775,33.0732018 C32.903775,33.3023552 32.9289415,33.5315086 32.9541081,33.811585 L32.9792746,34.0152769 L33.180607,33.9898154 C34.1117691,33.9134309 35.0429312,34.0407384 35.8985936,34.3971992 C34.942265,35.3647358 34.2376018,36.5614258 33.8349371,37.8854233 C32.7276092,36.9178867 31.9977794,35.5684278 31.7712805,34.1171229 C31.7209474,33.7861235 31.6957809,33.4296626 31.6957809,33.0986633 C31.6957809,32.8949714 31.6957809,32.665818 31.7209474,32.462126 C32.0481125,29.2030554 34.7660992,26.7078294 38.0125833,26.7078294 M35.0177646,45.2183323 L35.1184308,45.3456397 L35.7475944,45.0655633 C36.099926,44.9127944 36.427091,44.7091025 36.7794226,44.4544876 L36.9555885,44.3271801 L36.8297557,44.1489497 C36.1754256,43.2577976 35.7727609,42.239338 35.6217617,41.144494 C37.0310881,41.5773393 38.5410807,41.6282623 39.9504071,41.2718014 C39.7239082,42.8504137 38.8934123,44.3017187 37.6602517,45.2947167 C36.5529238,46.2113304 35.1687639,46.6950987 33.7342709,46.6950987 C30.2612879,46.6950987 27.4426351,43.8434118 27.4426351,40.3297263 C27.4426351,38.3182686 28.3989637,36.4086569 29.984456,35.2119669 C30.5129534,37.2488861 31.7964471,39.0057288 33.5329386,40.1514959 L33.5329386,40.3297263 C33.4826055,42.1120306 34.0111029,43.7670274 35.0177646,45.2183323 M29.6824574,32.9713558 C27.0148038,34.4481222 25.3789785,37.2743475 25.3789785,40.3551878 C25.3789785,45.0146404 29.1287935,48.7829408 33.7091044,48.7829408 C35.1435973,48.7829408 36.5277572,48.4010185 37.7860844,47.7135582 C39.019245,48.4264799 40.4285714,48.7829408 41.8630644,48.7829408 C46.4685418,48.7829408 50.1931902,44.9891789 50.1931902,40.3551878 C50.1931902,37.4780395 48.7586973,34.8045831 46.3678756,33.2768937 L46.3678756,33.0986633 C46.3427091,28.4392107 42.5928942,24.6454488 38.0125833,24.6454488 C33.4574389,24.6454488 29.7327905,28.3628262 29.6824574,32.9713558 Z" id="形状" fill="#071D3C" fill-rule="nonzero"></path>
                    </g>
                </g>
            </g>
        </g>
    </g>
</svg>