<?xml version="1.0" encoding="UTF-8"?>
<svg width="76px" height="76px" viewBox="0 0 76 76" version="1.1" xmlns="http://www.w3.org/2000/svg" xmlns:xlink="http://www.w3.org/1999/xlink">
    <title>编组 14</title>
    <defs>
        <linearGradient x1="34.056073%" y1="35.119317%" x2="98.2773664%" y2="63.8152069%" id="linearGradient-1">
            <stop stop-color="#2ECEFF" offset="0%"></stop>
            <stop stop-color="#55D7FF" offset="100%"></stop>
        </linearGradient>
    </defs>
    <g id="页面-1" stroke="none" stroke-width="1" fill="none" fill-rule="evenodd">
        <g id="极星平台" transform="translate(-760.000000, -820.000000)">
            <g id="编组-14" transform="translate(0.000000, 556.000000)">
                <g id="编组-21" transform="translate(730.000000, 217.000000)">
                    <g id="编组-14" transform="translate(30.000000, 47.000000)">
                        <g id="编组-70" fill="#FFFFFF" fill-opacity="0.6">
                            <circle id="椭圆形" cx="38" cy="38" r="38"></circle>
                        </g>
                        <g id="编组" transform="translate(24.000000, 22.000000)" fill-rule="nonzero">
                            <path d="M22.8818236,13.8017429 C22.325135,13.8017429 21.7684463,14.2783224 21.7684463,14.9074074 L21.7684463,16.337146 C21.6916617,16.9662309 21.2117576,17.4428105 20.5782843,17.4428105 C19.944811,17.4428105 19.2921416,16.9662309 19.2921416,16.2608932 L19.2921416,11.9716776 C19.2921416,11.4188453 18.8122376,10.8660131 18.1787642,10.8660131 C17.6220756,10.8660131 17.0653869,11.3425926 17.0653869,11.9716776 L17.0653869,14.6786492 C17.0653869,15.3077342 16.5086983,15.9558824 15.7792442,15.9558824 C15.1457708,15.9558824 14.5890822,15.4793028 14.4931014,14.7739651 L14.4931014,11.2663399 C14.4931014,10.7135076 14.0131974,10.1606754 13.3797241,10.1606754 C12.8230354,10.1606754 12.2663467,10.6372549 12.2663467,11.2663399 L12.2663467,16.1846405 C12.2663467,16.8137255 11.7096581,17.4618736 10.980204,17.4618736 C10.3467307,17.4618736 9.79004199,16.9852941 9.79004199,16.1846405 L9.79004199,14.9074074 C9.79004199,14.3545752 9.31013797,13.8017429 8.67666467,13.8017429 C8.04319136,13.8017429 7.56328734,14.2783224 7.56328734,14.9074074 L7.56328734,20.3976035 C7.56328734,20.9504357 8.04319136,21.503268 8.67666467,21.503268 C9.31013797,21.503268 9.79004199,21.0266885 9.79004199,20.3976035 L9.79004199,19.8447712 C9.79004199,19.2156863 10.3467307,18.5675381 11.0761848,18.5675381 C11.7096581,18.5675381 12.3623275,19.1203704 12.3623275,19.8447712 L12.3623275,21.9035948 C12.3623275,22.456427 12.8422316,23.0092593 13.4757049,23.0092593 C14.1091782,23.0092593 14.5890822,22.5326797 14.5890822,21.9035948 L14.5890822,18.3197168 C14.5890822,17.6906318 15.1457708,17.1377996 15.875225,17.1377996 C16.5086983,17.1377996 17.1613677,17.6906318 17.1613677,18.4150327 L17.1613677,22.7042484 C17.1613677,23.2570806 17.6412717,23.8099129 18.2747451,23.8099129 C18.8314337,23.8099129 19.3881224,23.3333333 19.3881224,22.7042484 L19.3881224,19.921024 C19.3881224,19.291939 19.8680264,18.7391068 20.6742651,18.7391068 C21.3077385,18.7391068 21.8836233,19.2156863 21.8836233,19.8447712 L21.8836233,20.3976035 C21.8836233,20.9504357 22.3635273,21.503268 22.9970006,21.503268 C23.5536893,21.503268 24.1103779,21.0266885 24.1103779,20.3976035 L24.1103779,14.9074074 C23.9184163,14.2783224 23.4577085,13.8017429 22.8818236,13.8017429 Z M6.33473305,16.0321351 C5.77804439,16.0321351 5.22135573,16.5087146 5.22135573,17.1377996 L5.22135573,18.2434641 C5.22135573,18.7962963 5.70125975,19.3491285 6.33473305,19.3491285 C6.89142172,19.3491285 7.44811038,18.872549 7.44811038,18.2434641 L7.44811038,17.1377996 C7.29454109,16.5087146 6.81463707,16.0321351 6.33473305,16.0321351 L6.33473305,16.0321351 Z M25.6844631,16.0321351 C25.1277744,16.0321351 24.5710858,16.5087146 24.5710858,17.1377996 L24.5710858,18.2434641 C24.5710858,18.7962963 25.0509898,19.3491285 25.6844631,19.3491285 C26.3179364,19.3491285 26.7978404,18.872549 26.7978404,18.2434641 L26.7978404,17.1377996 C26.7978404,16.5087146 26.3371326,16.0321351 25.6844631,16.0321351 Z" id="形状" fill="url(#linearGradient-1)"></path>
                            <path d="M30.2531494,22.3039216 L30.2531494,12.6198257 C31.2897421,12.1432462 31.9424115,11.1138344 31.9424115,10.0081699 C31.9424115,8.42592593 30.6562687,7.14869281 29.0629874,7.14869281 C28.5062987,7.14869281 27.8728254,7.30119826 27.3737253,7.70152505 L18.8890222,2.93572985 L18.8890222,2.85947712 C18.8890222,1.27723312 17.6028794,0 16.0095981,0 C14.4163167,0 13.130174,1.27723312 13.130174,2.85947712 L13.130174,2.93572985 L4.64547091,7.8540305 C4.08878224,7.4537037 3.53209358,7.30119826 2.87942412,7.30119826 C1.28614277,7.22494553 0,8.48311547 0,10.0844227 C0,11.2854031 0.710257948,12.3148148 1.84283143,12.7913943 L1.84283143,22.3801743 C0.729454109,22.7042484 0,23.7336601 0,24.8393246 C0,26.4215686 1.28614277,27.6988017 2.87942412,27.6988017 C3.43611278,27.6988017 4.08878224,27.5462963 4.56868626,27.2222222 L13.2069586,32.1405229 C13.2069586,33.7227669 14.4931014,35 16.0863827,35 C17.6796641,35 18.9658068,33.7227669 18.9658068,32.1405229 L27.5272945,27.2222222 C28.0071986,27.5462963 28.5638872,27.6988017 29.1205759,27.6988017 C30.7138572,27.6988017 32,26.4215686 32,24.8393246 C31.9232154,23.8099129 31.2897421,22.7805011 30.2531494,22.3039216 L30.2531494,22.3039216 Z M28.4103179,22.1323529 C28.0839832,22.2086057 27.7768446,22.3801743 27.4505099,22.5326797 L25.3005399,21.3507625 C25.2237552,21.3507625 25.070186,21.2745098 24.9742052,21.2745098 C24.4943011,21.2745098 24.0143971,21.6748366 24.0143971,22.2276688 C24.0143971,22.5517429 24.1679664,22.7805011 24.4175165,22.9520697 L26.3371326,24.0577342 C26.2603479,24.3818083 26.1835633,24.6105664 26.1835633,25.0108932 C26.1835633,25.41122 26.2603479,25.5637255 26.3371326,25.9640523 L18.2555489,30.577342 C17.9292142,30.1770153 17.5260948,29.8529412 16.8926215,29.5479303 L16.8926215,27.1459695 C16.8158368,26.66939 16.4895021,26.2690632 15.9328134,26.2690632 C15.3761248,26.2690632 15.04979,26.5931373 14.9730054,27.1459695 L14.9730054,29.4526144 C14.4163167,29.6051198 13.8596281,29.9291939 13.5332933,30.4820261 L5.37492501,25.7924837 C5.45170966,25.4684096 5.5284943,25.2396514 5.5284943,24.9155773 C5.5284943,24.6868192 5.5284943,24.5152505 5.45170966,24.3627451 L7.37132573,23.1808279 L7.44811038,23.1045752 C7.67846431,22.9520697 7.85122975,22.7042484 7.85122975,22.3801743 C7.85122975,21.9035948 7.44811038,21.4270153 6.89142172,21.4270153 C6.73785243,21.4270153 6.56508698,21.503268 6.4115177,21.5795207 L4.49190162,22.7614379 C4.16556689,22.5136166 3.85842831,22.3611111 3.3785243,22.2086057 L3.3785243,12.7723312 C3.78164367,12.6198257 4.1079784,12.4482571 4.41511698,12.2194989 L6.4115177,13.3251634 C6.48830234,13.4014161 6.64187163,13.4014161 6.73785243,13.4014161 C7.21775645,13.4014161 7.69766047,13.0010893 7.69766047,12.4482571 C7.69766047,12.2194989 7.54409118,11.9716776 7.37132573,11.7238562 L5.60527894,10.6181917 C5.68206359,10.4656863 5.68206359,10.2178649 5.68206359,10.0653595 C5.68206359,9.83660131 5.68206359,9.58877996 5.60527894,9.34095861 L13.7636473,4.65141612 C14.089982,5.05174292 14.6466707,5.35675381 15.1265747,5.60457516 L15.1265747,7.98747277 C15.1265747,8.46405229 15.5296941,8.94063181 16.0863827,8.94063181 C16.6430714,8.94063181 17.0461908,8.54030501 17.0461908,7.98747277 L17.0461908,5.62363834 C17.5260948,5.4711329 18.0059988,5.14705882 18.3323335,4.6704793 L26.4139172,9.28376906 C26.3371326,9.60784314 26.3371326,9.83660131 26.3371326,10.0081699 L26.3371326,10.4084967 L24.4175165,11.6094771 C24.1871626,11.7619826 24.0143971,12.0098039 24.0143971,12.333878 C24.0143971,12.8104575 24.4175165,13.287037 24.9742052,13.287037 C25.1277744,13.287037 25.2237552,13.287037 25.3773245,13.2107843 L27.220156,12.1051198 C27.5464907,12.4291939 28.1031794,12.6579521 28.5830834,12.8295207 L28.5830834,22.2086057 L28.4103179,22.2086057 L28.4103179,22.1323529 Z" id="形状" fill="#071D3C"></path>
                        </g>
                    </g>
                </g>
            </g>
        </g>
    </g>
</svg>